<svg width="121" height="20" viewBox="0 0 121 20" fill="none" xmlns="http://www.w3.org/2000/svg">
<g clip-path="url(#clip0_2428_2402)">
<path d="M21.0852 0.697754H17.3643V19.3024H21.0852V0.697754Z" fill="white"/>
<path fill-rule="evenodd" clip-rule="evenodd" d="M11.1628 0.697754V8.13961H3.72093V0.697754H0V19.3024H3.72093V11.8606H11.1628V19.3024H14.8837V0.697754H11.1628Z" fill="white"/>
<path fill-rule="evenodd" clip-rule="evenodd" d="M72.558 0.697754H57.6743V4.41868H63.2557V19.3024H66.9766V4.41868H72.558V0.697754Z" fill="white"/>
<path d="M104.186 19.3024V14.9652C104.186 13.1931 103.511 11.5792 102.404 10.366C103.5 9.34659 104.186 7.8931 104.186 6.27915C104.186 3.19698 101.687 0.697754 98.6046 0.697754H89.3022V19.3024H93.0232M93.0232 4.41868H98.6046C99.6302 4.41868 100.465 5.25357 100.465 6.27915C100.465 7.30473 99.6302 8.13961 98.6046 8.13961H93.0232V4.41868ZM93.0232 19.3024V11.8606H97.3604C99.072 11.8606 100.465 13.2536 100.465 14.9652V19.3024" fill="white"/>
<path d="M113.484 19.9224C108.894 19.9224 106.042 17.5464 106.042 13.7208H109.763C109.763 14.8092 110.207 15.2557 110.595 15.5232C111.228 15.9604 112.253 16.2015 113.484 16.2015C114.714 16.2015 115.755 15.965 116.414 15.5348C116.96 15.1782 117.205 14.7139 117.205 14.0309C117.205 13.0433 116.835 12.5673 113.119 11.8239C111.388 11.4774 109.853 11.1325 108.6 10.4092C106.926 9.44333 106.041 7.90767 106.041 5.96814C106.041 2.38907 108.962 0.0766602 113.483 0.0766602C118.004 0.0766602 120.925 2.45263 120.925 6.27821H117.204C117.204 5.18984 116.76 4.74333 116.372 4.47589C115.739 4.03868 114.713 3.79759 113.483 3.79759C112.253 3.79759 111.212 4.03403 110.553 4.46426C110.006 4.82085 109.762 5.28519 109.762 5.96814C109.762 6.95573 110.132 7.4317 113.848 8.17511C115.579 8.52162 117.113 8.86659 118.367 9.58984C120.04 10.5557 120.925 12.0914 120.925 14.0309C120.925 17.61 118.005 19.9224 113.484 19.9224Z" fill="white"/>
<path d="M48.9924 19.9224C44.4025 19.9224 41.5506 17.5464 41.5506 13.7208H45.2715C45.2715 14.8092 45.7157 15.2557 46.1033 15.5232C46.7366 15.9604 47.7622 16.2015 48.9924 16.2015C50.2227 16.2015 51.2638 15.965 51.9227 15.5348C52.4692 15.1782 52.7134 14.7139 52.7134 14.0309C52.7134 13.0433 52.3436 12.5673 48.6273 11.8239C46.8963 11.4774 45.3622 11.1325 44.1087 10.4092C42.4351 9.44333 41.5498 7.90767 41.5498 5.96814C41.5498 2.38907 44.4707 0.0766602 48.9917 0.0766602C53.5126 0.0766602 56.4335 2.45263 56.4335 6.27821H52.7126C52.7126 5.18984 52.2684 4.74333 51.8808 4.47589C51.2475 4.03868 50.2219 3.79759 48.9917 3.79759C47.7614 3.79759 46.7203 4.03403 46.0614 4.46426C45.5149 4.82085 45.2707 5.28519 45.2707 5.96814C45.2707 6.95573 45.6405 7.4317 49.3568 8.17511C51.0878 8.52162 52.6219 8.86659 53.8754 9.58984C55.549 10.5557 56.4343 12.0914 56.4343 14.0309C56.4343 17.61 53.5134 19.9224 48.9924 19.9224Z" fill="white"/>
<path d="M31.545 19.9227C29.8365 19.9227 28.2218 19.4304 26.8295 18.4614C24.4233 16.7878 23.0016 13.9289 22.9295 10.618C22.8311 6.09792 25.9032 1.84598 30.2334 0.507229C32.9823 -0.342383 35.604 0.034361 37.2466 1.51498C38.9954 3.09172 39.304 5.72195 37.9481 7.50335C36.6559 9.2018 34.6706 9.82505 32.9195 10.3754C32.7745 10.4211 32.6303 10.4661 32.4885 10.5118L31.7009 8.12815C31.8474 8.08164 31.9954 8.03513 32.1443 7.98784C33.5993 7.53048 35.1047 7.05761 35.9086 6.0018C36.528 5.18862 36.2102 3.98087 35.5249 3.36304C34.39 2.33978 32.4419 2.45219 30.9978 2.8987C29.4241 3.38474 27.9993 4.43048 26.9869 5.84288C25.9776 7.24986 25.4419 8.92738 25.4776 10.5645C25.5319 13.0723 26.5613 15.2049 28.3016 16.4149C29.8226 17.4731 31.7675 17.6971 33.7784 17.0452C35.6032 16.4537 37.1807 14.7816 37.8939 12.6816L40.3109 13.4762C39.3326 16.3545 37.1885 18.5785 34.5761 19.4258C33.5512 19.7576 32.5326 19.9219 31.5458 19.9219L31.545 19.9227Z" fill="white"/>
<path d="M80.3293 19.9224C79.3704 19.9224 78.4231 19.7588 77.5448 19.4216C74.7053 18.3309 72.8844 15.4534 73.2161 12.5798C73.3719 11.2286 73.9564 9.90841 74.8247 8.80454C74.1906 7.05803 74.2107 5.12547 74.8859 3.59679C75.7502 1.6402 77.5309 0.372752 79.7696 0.120814C82.1929 -0.152054 84.6394 0.870426 86.0022 2.72624L84.0278 4.23865C83.1781 3.08206 81.6138 2.4495 80.0402 2.62624C78.6906 2.77818 77.6324 3.50996 77.1355 4.63322C76.8394 5.30221 76.7572 6.11849 76.8851 6.94485C77.2727 6.70299 77.6805 6.49756 78.1037 6.33555C79.2417 5.89834 80.4657 5.91384 81.4619 6.37586C82.6898 6.9464 83.513 8.20066 83.5107 9.49834C83.5084 10.7588 82.7169 11.9867 81.5417 12.5534C80.5464 13.0332 79.3394 13.0464 78.2316 12.5891C77.4774 12.2774 76.7999 11.7929 76.2278 11.1658C75.9324 11.7084 75.7355 12.2914 75.6681 12.8743C75.4704 14.5844 76.651 16.3844 78.4138 17.0619C80.3161 17.7922 82.7983 17.3115 84.451 15.8914C85.0557 15.372 85.4929 14.7534 85.7502 14.0526L88.0619 14.9379C87.6541 16.0487 86.9735 17.0193 86.0409 17.8208C84.451 19.1867 82.3642 19.9216 80.3301 19.9216L80.3293 19.9224ZM77.896 9.27973C78.2572 9.72237 78.689 10.058 79.158 10.2518C79.6223 10.4433 80.1192 10.4518 80.4882 10.2736C80.8037 10.1216 81.0425 9.78516 81.0433 9.49213C81.0433 9.18283 80.7851 8.82934 80.4409 8.66965C80.0433 8.48516 79.4944 8.49368 78.9743 8.69368C78.596 8.83865 78.2332 9.03864 77.896 9.27973Z" fill="white"/>
</g>
<defs>
<clipPath id="clip0_2428_2402">
<rect width="121" height="20" fill="white"/>
</clipPath>
</defs>
</svg>
