<svg width="320" height="214" viewBox="0 0 320 214" fill="none" xmlns="http://www.w3.org/2000/svg">
<path d="M141.066 56.1176C137.926 56.1176 134.81 55.5606 131.928 54.4247C127.332 52.6156 123.571 49.0149 121.052 44.0174C118.99 39.9277 117.795 34.9126 117.688 29.8975C117.503 21.2335 121.402 12.6002 128.121 6.80008C135.68 0.274117 147.901 -3.29367 156.868 4.30022C159.714 6.71018 161.367 10.1837 161.402 13.8304C161.438 17.3872 159.968 20.6546 157.269 23.0295C152.769 26.992 146.618 28.3603 142.127 29.3603L140.566 22.2839C144.502 21.409 149.401 20.3191 152.51 17.5802C153.602 16.6175 154.199 15.3106 154.183 13.9006C154.168 12.37 153.451 10.8898 152.212 9.84159C146.473 4.9822 138.141 7.70793 132.825 12.2976C127.801 16.6351 124.766 23.3211 124.902 29.7462C125.126 40.2632 130.246 45.9822 134.562 47.6817C139.711 49.7101 146.199 49.0895 151.089 46.1006C155.692 43.2872 158.196 38.5615 157.786 33.4544L164.981 32.8732C165.606 40.6491 161.72 48.0895 154.844 52.2933C150.703 54.8238 145.859 56.122 141.066 56.1242V56.1176Z" fill="white"/>
<path d="M59.7894 1.7543H49.2637V54.3831H59.7894V1.7543Z" fill="white"/>
<path d="M191.361 56.1374C179.754 56.1374 170.31 46.6927 170.31 35.0858V1.7543H180.836V35.0858C180.836 40.8904 185.557 45.6116 191.361 45.6116C197.166 45.6116 201.887 40.8904 201.887 35.0858V1.7543H212.413V35.0858C212.413 46.6927 202.968 56.1374 191.361 56.1374Z" fill="white"/>
<path fill-rule="evenodd" clip-rule="evenodd" d="M31.7206 1.7543V22.8058H10.6691V1.7543H0.143311V54.3831H10.6691V33.3316H31.7206V54.3831H42.2463V1.7543H31.7206Z" fill="white"/>
<path d="M101.612 36.8401C99.1206 43.1687 93.9081 45.6116 89.2593 45.6116C82.878 45.6116 75.4267 41.0175 75.4267 28.0687C75.4267 15.1198 82.878 10.5258 89.2593 10.5258C93.9081 10.5258 99.1206 12.9686 101.612 19.2972H112.418C111.412 15.2667 109.699 11.6331 107.366 8.66182C102.978 3.07659 96.5462 0 89.2593 0C81.9724 0 75.5407 3.07659 71.1528 8.66182C67.2188 13.6703 65.05 20.5625 65.05 28.0687C65.05 35.5748 67.2166 42.467 71.1528 47.4755C75.5407 53.0608 81.9702 56.1373 89.2593 56.1373C96.5484 56.1373 102.978 53.0608 107.366 47.4755C109.699 44.5042 111.412 40.8706 112.418 36.8401H101.612Z" fill="white"/>
<path d="M233.164 57.8916C230.526 57.8916 227.87 56.6307 225.895 54.3151C222.623 50.482 221.939 45.2213 221.607 41.3443C220.513 41.5394 219.344 41.8201 218.105 42.1995L215.921 35.6143C217.709 35.0661 219.533 34.6604 221.322 34.4083C221.412 27.3626 222.739 18.8565 227.245 11.1441C231 4.72344 237.659 0.464894 244.628 0.0328999C248.58 -0.210508 252.838 0.973639 256.314 3.2893C260.138 5.83741 262.564 9.40082 263.143 13.3239C263.976 18.9551 261.145 24.9592 255.753 28.9941C249.591 33.6057 241.642 34.6736 234.486 31.8492L237.216 25.4548C241.957 27.3253 247.238 26.6104 251.338 23.5404C254.7 21.0252 256.496 17.4837 256.027 14.2997C255.481 10.6135 250.588 6.59176 245.091 6.93385C240.593 7.21234 236.047 10.1968 233.51 14.5343C229.752 20.9638 228.609 28.1959 228.511 34.2789C232.951 34.8359 236.515 36.691 238.861 39.6755C240.951 42.3355 241.995 45.7322 241.723 48.9952C241.466 52.0827 239.852 55.8983 236.091 57.35C235.142 57.7162 234.155 57.8938 233.164 57.8938V57.8916ZM228.826 41.3816C229.105 44.3573 229.647 47.8132 231.453 49.9293C232.002 50.5719 232.877 51.1398 233.416 50.9315C233.883 50.7517 234.453 49.7079 234.559 48.4426C234.688 46.8922 234.14 45.1292 233.127 43.842C232.317 42.8135 230.883 41.8837 228.826 41.3816Z" fill="white"/>
<path fill-rule="evenodd" clip-rule="evenodd" d="M87.8671 91.233V80.7072H49.2727V133.336H59.7985V112.284H86.1128V101.759H59.7985V91.233H87.8671Z" fill="white"/>
<path d="M19.1334 134.913C12.8267 134.913 7.41255 132.343 3.8645 127.664C0.855885 123.692 -0.411594 118.375 0.476517 113.439L7.46737 114.746C6.9367 117.691 7.69324 120.864 9.48919 123.234C12.4474 127.137 16.8791 127.692 19.2672 127.668C24.5015 127.624 29.942 124.969 32.8059 121.061C36.9439 115.414 37.9635 105.525 35.229 97.5491C32.5559 89.7512 27.6198 87.372 24.916 86.6462C19.5457 85.2076 12.4671 86.0497 9.32253 90.442C6.72837 94.0668 5.97184 99.5928 9.54401 103.139C11.9255 105.5 17.4493 108.684 27.6987 103.461L30.8784 109.941C20.5215 115.219 10.9387 114.631 4.58814 108.329C-1.12647 102.658 -1.54969 93.3388 3.58161 86.1703C8.83791 78.8286 19.2628 77.6379 26.7251 79.6378C33.7532 81.5214 39.1565 87.0321 41.9414 95.1567C45.4522 105.404 44.0378 117.837 38.503 125.392C34.3124 131.111 26.7843 134.848 19.3264 134.909C19.2628 134.909 19.197 134.909 19.1334 134.909V134.913Z" fill="white"/>
<path fill-rule="evenodd" clip-rule="evenodd" d="M230.073 190.979V180.453H203.758V169.928H231.827V159.402H193.233V212.031H231.827V201.505H203.758V190.979H230.073Z" fill="white"/>
<path fill-rule="evenodd" clip-rule="evenodd" d="M91.4837 190.979V180.453H65.1693V169.928H93.238V159.402H54.6436V212.031H93.238V201.505H65.1693V190.979H91.4837Z" fill="white"/>
<path fill-rule="evenodd" clip-rule="evenodd" d="M140.604 159.402H98.5007V169.928H114.289V212.031H124.815V169.928H140.604V159.402Z" fill="white"/>
<path d="M279.193 211.983V199.714C279.193 194.701 277.283 190.135 274.151 186.704C277.252 183.82 279.193 179.708 279.193 175.143C279.193 166.424 272.123 159.354 263.404 159.354H237.09V211.983H247.616M247.616 169.88H263.404C266.305 169.88 268.667 172.242 268.667 175.143C268.667 178.044 266.305 180.406 263.404 180.406H247.616V169.88ZM247.616 211.983V190.932H259.885C264.727 190.932 268.667 194.872 268.667 199.714V211.983" fill="white"/>
<path fill-rule="evenodd" clip-rule="evenodd" d="M296.423 199.748H306.902V197.884C306.902 196.508 307.718 195.263 308.98 194.71C312.344 193.237 315.165 190.811 317.138 187.694C319.173 184.48 320.155 180.759 319.98 176.932C319.771 172.353 317.867 168.032 314.619 164.766C311.373 161.499 307.076 159.585 302.523 159.374C297.454 159.139 292.655 160.946 288.999 164.461C285.34 167.973 283.325 172.711 283.325 177.797H293.804C293.804 175.617 294.666 173.587 296.236 172.081C297.803 170.575 299.862 169.802 302.04 169.903C306.046 170.087 309.329 173.389 309.513 177.417C309.663 180.732 307.812 183.727 304.795 185.048C299.709 187.274 296.423 192.313 296.423 197.882V199.748ZM296.423 203.261H306.902V212.042H296.423V203.261Z" fill="white"/>
<path d="M162.173 213.785C158.827 213.785 155.675 212.366 153.812 209.882C152.301 207.866 150.904 204.367 152.825 199.143C153.917 196.172 155.741 193.442 157.206 191.249C157.456 190.876 157.693 190.519 157.912 190.183C158.107 189.885 158.303 189.587 158.5 189.286C161.344 184.951 164.032 180.855 164.436 176.272C164.554 174.923 164.491 173.491 164.184 172.107C162.938 172.667 161.651 173.202 160.298 173.642C158.656 174.177 156.658 174.528 154.814 174.607C152.18 174.717 149.946 174.296 148.176 173.349C146.244 172.316 144.919 170.686 144.352 168.638C143.22 164.562 146.255 160.463 149.842 158.856C152.926 157.474 156.634 157.266 160.015 158.279C162.969 159.165 165.456 160.761 167.363 162.884C168.19 162.575 169.039 162.294 169.916 162.064C177.624 160.029 184.102 160.503 189.72 163.516L186.316 169.818C182.38 167.708 177.617 167.434 171.756 168.983C171.464 169.059 171.17 169.147 170.876 169.241C171.574 171.577 171.83 174.16 171.589 176.899C171.028 183.271 167.565 188.547 164.511 193.203C164.318 193.499 164.125 193.793 163.932 194.086C163.699 194.442 163.447 194.819 163.184 195.214C161.173 198.222 157.809 203.255 159.566 205.599C160.215 206.467 161.815 206.851 163.289 206.491C165.421 205.974 167.723 204.323 168.646 202.652L174.938 206.103C173.028 209.557 169.124 212.439 164.993 213.443C164.052 213.671 163.103 213.783 162.171 213.783L162.173 213.785ZM151.303 166.818C151.334 166.886 151.397 166.952 151.57 167.044C152.882 167.746 156.044 167.5 158.066 166.842C158.741 166.623 159.414 166.364 160.094 166.079C159.458 165.693 158.743 165.373 157.941 165.132C156.193 164.608 154.314 164.698 152.785 165.382C152.09 165.693 151.417 166.445 151.301 166.816L151.303 166.818Z" fill="white"/>
<path d="M9.01651 213.785C7.27757 213.785 5.55617 213.298 4.09353 212.351C1.94233 210.958 0.563017 208.698 0.304259 206.143C0.0520792 203.632 0.832739 201.148 2.50151 199.148C4.31062 196.981 6.94645 195.622 9.73796 195.415C12.5777 195.205 15.1456 196.005 17.4437 197.141C18.5928 192.696 18.1279 188.034 17.6389 183.107C17.3889 180.581 17.1279 177.969 17.0863 175.322C16.9328 165.623 19.6146 161.669 21.6452 159.54C24.4609 156.589 28.8597 155.266 32.8551 156.174C36.3791 156.974 39.0412 159.38 40.1596 162.772C41.9117 168.09 40.574 174.011 38.7364 177.778L32.421 174.666C33.9362 171.555 34.3638 167.669 33.4823 164.994C33.3573 164.612 32.9736 163.45 31.3026 163.071C29.7128 162.709 27.8269 163.27 26.7195 164.432C24.2723 166.998 24.0618 171.811 24.1144 175.208C24.1517 177.559 24.3863 179.912 24.6319 182.403C25.1801 187.916 25.7459 193.617 24.0925 199.479C23.9521 199.981 23.7942 200.474 23.6254 200.957C24.2131 201.343 24.7854 201.709 25.3643 202.047C27.9453 203.551 30.4978 204.63 32.9516 205.253C36.105 206.053 41.9248 206.676 45.4751 201.854L51.1283 206.06C46.8193 211.917 39.3811 214.18 31.2302 212.11C28.1449 211.327 24.985 210 21.8382 208.167C21.2987 207.853 20.7768 207.527 20.2681 207.198C18.0577 210.064 15.2026 212.2 11.9769 213.296C11.0142 213.623 10.0099 213.785 9.00993 213.785H9.01651ZM10.6327 202.452C10.5055 202.452 10.3805 202.457 10.2533 202.465C9.37176 202.531 8.4661 203 7.88938 203.693C7.57799 204.066 7.22494 204.669 7.30169 205.43C7.328 205.7 7.4201 206.095 7.90034 206.404C8.40909 206.733 9.1108 206.807 9.73139 206.597C11.4287 206.02 12.9724 204.926 14.2553 203.441C13.0316 202.845 11.8168 202.452 10.6327 202.452Z" fill="white"/>
</svg>
