<svg width="100" height="80" viewBox="0 0 100 80" fill="none" xmlns="http://www.w3.org/2000/svg">
<path fill-rule="evenodd" clip-rule="evenodd" d="M66.9693 79.9988L66.9718 80H66.9687C66.9689 79.9996 66.9691 79.9992 66.9693 79.9988ZM58.3233 76.0158L66.9693 79.9988C67.5384 78.8648 68.1604 77.559 68.7917 76.1158C71.6818 70.4629 75.2812 65.7194 79.5246 61.9758C84.1009 57.9384 89.3024 55.251 94.5724 54.2042L92.7027 44.9077C86.2443 46.1921 79.9384 49.2794 74.3822 53.8699C74.6311 48.1389 73.7724 42.9047 71.8125 38.2455C69.0126 31.5958 63.7426 26.6148 56.9731 24.218C54.6772 23.4055 52.2382 22.8993 49.7214 22.6962C48.3215 17.6558 46.0972 13.1403 43.1013 9.38424C39.5641 4.94693 34.9661 1.9283 29.8081 0.656481C24.1772 -0.734085 18.285 0.0940059 12.763 3.05013C7.70145 5.75939 3.76295 10.6498 1.67237 16.8183C-0.191107 22.3212 -0.508428 28.4303 0.776406 34.0207L10.072 31.9083C7.93788 22.6306 12.063 14.1934 17.2833 11.3998C25.1696 7.18121 31.9298 10.6342 35.6287 15.2746C37.4704 17.587 38.9263 20.3244 39.9716 23.3899C38.8081 23.643 37.6477 23.9586 36.4936 24.3336C22.5315 28.874 11.416 41.0423 8.17743 55.3323C6.14907 64.2882 8.23342 71.9628 13.8985 76.3908C17.5197 79.2188 21.7569 80.3781 26.1527 79.7344C31.6809 78.9282 37.3024 75.1658 41.188 69.6723C46.8656 61.6477 50.5552 50.8419 51.3112 40.0298C51.4947 37.4331 51.5009 34.8894 51.3392 32.4208C57.0914 33.6395 61.1325 37.4362 63.0147 41.9047C64.5981 45.664 67.2705 55.7604 60.2521 71.9003C59.5739 73.2315 58.9299 74.6034 58.3233 76.0158ZM41.7978 32.684C41.0335 32.8651 40.2568 33.0836 39.4614 33.3426C28.7908 36.8112 19.9587 46.4858 17.4824 57.4166C17.0437 59.354 15.9113 65.9068 19.7907 68.938C21.3462 70.1535 22.9732 70.6191 24.7652 70.3567C27.7082 69.9254 31.012 67.5755 33.3857 64.2194C38.0211 57.6666 41.1663 48.3763 41.7947 39.3736C41.9564 37.0708 41.9564 34.8337 41.7978 32.684ZM99.5532 72.5003C99.5532 76.6423 96.2104 80 92.0868 80C87.9633 80 84.6205 76.6423 84.6205 72.5003C84.6205 68.3583 87.9633 65.0006 92.0868 65.0006C96.2104 65.0006 99.5532 68.3583 99.5532 72.5003Z" fill="white"/>
</svg>
