<svg width="40" height="32" viewBox="0 0 40 32" fill="none" xmlns="http://www.w3.org/2000/svg">
<path fill-rule="evenodd" clip-rule="evenodd" d="M26.9073 31.9995L26.9083 32H26.9071C26.9072 31.9998 26.9072 31.9997 26.9073 31.9995ZM23.4335 30.4063L26.9073 31.9995C27.136 31.5459 27.3859 31.0236 27.6395 30.4463C28.8007 28.1852 30.2469 26.2877 31.9519 24.7903C33.7905 23.1754 35.8805 22.1004 37.9979 21.6817L37.2466 17.9631C34.6518 18.4768 32.1181 19.7118 29.8857 21.5479C29.9857 19.2555 29.6407 17.1619 28.8532 15.2982C27.7283 12.6383 25.6109 10.6459 22.891 9.68719C21.9685 9.36221 20.9886 9.15971 19.9774 9.07847C19.4149 7.0623 18.5212 5.25613 17.3175 3.7537C15.8963 1.97877 14.0489 0.77132 11.9765 0.262592C9.71406 -0.293635 7.34666 0.0376019 5.128 1.22005C3.09434 2.30376 1.5119 4.25992 0.67194 6.72732C-0.0767786 8.92848 -0.204274 11.3721 0.311954 13.6083L4.0468 12.7633C3.18933 9.05222 4.84676 5.67736 6.94417 4.55991C10.1128 2.87248 12.8289 4.25367 14.3151 6.10984C15.0551 7.03481 15.6401 8.12976 16.06 9.35596C15.5926 9.4572 15.1263 9.58345 14.6626 9.73344C9.05284 11.5496 4.58677 16.4169 3.28558 22.1329C2.47061 25.7153 3.30808 28.7851 5.58423 30.5563C7.03917 31.6875 8.7416 32.1512 10.5078 31.8938C12.7289 31.5713 14.9876 30.0663 16.5488 27.8689C18.8299 24.6591 20.3124 20.3367 20.6161 16.0119C20.6898 14.9732 20.6923 13.9558 20.6273 12.9683C22.9385 13.4558 24.5622 14.9745 25.3184 16.7619C25.9546 18.2656 27.0283 22.3042 24.2084 28.7601C23.936 29.2926 23.6772 29.8413 23.4335 30.4063ZM16.7938 13.0736C16.4867 13.146 16.1746 13.2334 15.855 13.337C11.5677 14.7245 8.01913 18.5943 7.02417 22.9666C6.84793 23.7416 6.39295 26.3627 7.95163 27.5752C8.5766 28.0614 9.23033 28.2477 9.9503 28.1427C11.1327 27.9702 12.4602 27.0302 13.4139 25.6878C15.2763 23.0666 16.54 19.3505 16.7925 15.7494C16.8575 14.8283 16.8575 13.9335 16.7938 13.0736ZM39.9991 29.0001C39.9991 30.6569 38.656 32 36.9992 32C35.3424 32 33.9993 30.6569 33.9993 29.0001C33.9993 27.3433 35.3424 26.0002 36.9992 26.0002C38.656 26.0002 39.9991 27.3433 39.9991 29.0001Z" fill="white"/>
</svg>
