<svg width="512" height="512" viewBox="0 0 512 512" fill="none" xmlns="http://www.w3.org/2000/svg">
<rect width="512" height="512" rx="256" fill="#1A1A1A"/>
<path d="M315.813 368H315.803C315.803 367.999 315.803 367.997 315.804 367.996L315.813 368ZM391.494 323.002C403.92 323.002 413.993 333.075 413.993 345.501C413.993 357.926 403.92 368 391.494 368C379.068 368 368.995 357.927 368.995 345.501C368.995 333.075 379.068 323.002 391.494 323.002ZM152.46 137.15C169.1 128.282 186.855 125.798 203.823 129.969C219.366 133.785 233.222 142.84 243.881 156.152C252.909 167.42 259.612 180.967 263.83 196.089C271.414 196.698 278.764 198.217 285.683 200.654C306.082 207.844 321.962 222.787 330.399 242.736C336.305 256.714 338.893 272.416 338.143 289.609C354.886 275.838 373.888 266.576 393.35 262.723L398.984 290.612C383.104 293.753 367.429 301.816 353.639 313.927C340.852 325.158 330.006 339.389 321.297 356.347C319.394 360.677 317.519 364.594 315.804 367.996L289.751 356.048C291.579 351.81 293.52 347.694 295.563 343.701C316.713 295.281 308.659 264.991 303.888 253.714C298.216 240.308 286.039 228.919 268.705 225.262C269.193 232.668 269.174 240.299 268.621 248.09C266.343 280.525 255.225 312.943 238.116 337.016C226.407 353.497 209.467 364.784 192.809 367.203C179.562 369.134 166.794 365.656 155.882 357.172C138.811 343.888 132.529 320.864 138.642 293.997C148.401 251.127 181.897 214.622 223.97 201.001C227.448 199.876 230.944 198.929 234.45 198.17C231.3 188.973 226.913 180.761 221.363 173.824C210.217 159.903 189.846 149.543 166.081 162.199C150.351 170.58 137.92 195.891 144.351 223.724L116.34 230.062C112.468 213.291 113.424 194.963 119.039 178.455C125.339 159.949 137.208 145.278 152.46 137.15ZM239.953 226.052C237.65 226.595 235.31 227.25 232.913 228.027C200.758 238.433 174.144 267.457 166.682 300.25C165.36 306.062 161.948 325.72 173.638 334.813C178.325 338.46 183.227 339.857 188.627 339.07C197.495 337.776 207.452 330.726 214.605 320.658C228.573 301 238.05 273.129 239.943 246.121C240.431 239.212 240.431 232.501 239.953 226.052Z" fill="white"/>
</svg>
