<svg width="16" height="16" viewBox="0 0 16 16" fill="none" xmlns="http://www.w3.org/2000/svg">
<path d="M15 8.99V6.99H10.5C10.5 6.99 10.44 6.99 10.41 6.99C11.7 5.72 12.5 3.95 12.5 2H10.5C10.5 3.85 9.49 5.44 8 6.31C6.51 5.44 5.5 3.85 5.5 2H3.5C3.5 3.96 4.3 5.72 5.59 6.99C5.56 6.99 5.53 6.99 5.5 6.99H1V8.99H5.5C5.5 8.99 5.56 8.99 5.59 8.99C4.3 10.26 3.5 12.03 3.5 13.98H5.5C5.5 12.13 6.51 10.54 8 9.67C9.49 10.54 10.5 12.13 10.5 13.98H12.5C12.5 12.02 11.7 10.26 10.41 8.99C10.44 8.99 10.47 8.99 10.5 8.99H15Z" fill="currentColor"/>
</svg>
