<svg width="32" height="32" viewBox="0 0 32 32" fill="none" xmlns="http://www.w3.org/2000/svg">
<path d="M29.9693 10.56C29.7292 9.93 29.449 9.33 29.1288 8.75C28.048 6.81 26.547 5.13 24.7558 3.84C22.2942 2.06 19.2722 1 16 1C12.7278 1 9.7058 2.06 7.24416 3.84C5.45297 5.13 3.94196 6.8 2.87125 8.75C2.55103 9.33 2.27085 9.94 2.03069 10.56C1.37025 12.25 1 14.08 1 16C1 17.92 1.37025 19.75 2.03069 21.44C2.27085 22.07 2.55103 22.67 2.87125 23.25C3.95197 25.19 5.45297 26.87 7.24416 28.16C9.7058 29.94 12.7278 31 16 31C19.2722 31 22.2942 29.94 24.7558 28.16C26.547 26.87 28.058 25.2 29.1288 23.25C29.449 22.67 29.7292 22.06 29.9693 21.44C30.6298 19.75 31 17.92 31 16C31 14.08 30.6298 12.25 29.9693 10.56ZM15.99 3C20.8032 3 24.996 5.62 27.2475 9.5C27.1674 9.53 27.0974 9.55 27.0173 9.58C24.2455 10.45 20.3429 11 15.99 11C11.6371 11 7.7445 10.45 4.96264 9.58C4.88259 9.55 4.81254 9.53 4.73249 9.5C6.98399 5.62 11.1768 3 15.99 3ZM15.99 29C11.1768 29 6.98399 26.38 4.73249 22.5C4.81254 22.47 4.88259 22.45 4.96264 22.42C7.73449 21.55 11.6371 21 15.99 21C20.3429 21 24.2355 21.55 27.0173 22.42C27.0974 22.45 27.1674 22.47 27.2475 22.5C24.996 26.38 20.8032 29 15.99 29ZM27.6077 20.51C24.5857 19.57 20.483 19 15.99 19C11.497 19 7.38426 19.57 4.37225 20.51C4.20213 20.56 4.03202 20.63 3.87191 20.68C3.31154 19.23 2.99133 17.65 2.99133 16C2.99133 14.35 3.31154 12.77 3.87191 11.32C4.04203 11.38 4.20213 11.44 4.37225 11.49C7.39426 12.43 11.497 13 15.99 13C20.483 13 24.5957 12.43 27.6077 11.49C27.7779 11.44 27.948 11.37 28.1081 11.32C28.6684 12.77 28.9887 14.35 28.9887 16C28.9887 17.65 28.6684 19.23 28.1081 20.68C27.938 20.62 27.7779 20.56 27.6077 20.51Z" fill="currentColor"/>
</svg>
