<svg width="321" height="364" viewBox="0 0 321 364" fill="none" xmlns="http://www.w3.org/2000/svg">
<rect x="118" y="98.9445" width="85" height="40" rx="2.5" fill="#1A1A1A"/>
<rect x="123" y="103.944" width="3.75" height="3.75" rx="1.875" fill="#00FF3C"/>
<path d="M130.18 122.329V125.548H131.652V126.273H130.18V129.645H129.323V122.329H130.18ZM128.389 123.526V124.229H122.566V123.526H125.049V122.329H125.906V123.526H128.389ZM125.478 124.768C126.873 124.768 127.818 125.482 127.829 126.591C127.818 127.69 126.873 128.393 125.478 128.393C124.071 128.393 123.115 127.69 123.126 126.591C123.115 125.482 124.071 124.768 125.478 124.768ZM125.478 125.449C124.555 125.449 123.939 125.899 123.95 126.591C123.939 127.283 124.555 127.723 125.478 127.712C126.389 127.723 127.005 127.283 127.016 126.591C127.005 125.899 126.389 125.449 125.478 125.449ZM130.63 131.151V131.876H124.071V129.063H124.917V131.151H130.63ZM135.464 122.867L132.893 132.392H132.036L134.596 122.867H135.464ZM138.716 122.911C139.54 122.905 140.243 123.213 140.694 123.735H143.253V122.318H144.121V128.107H143.253V126.712H140.705C140.243 127.234 139.54 127.542 138.716 127.536C137.255 127.547 136.178 126.591 136.178 125.229C136.178 123.856 137.255 122.9 138.716 122.911ZM138.716 123.658C137.716 123.647 137.002 124.306 137.002 125.229C137.002 126.141 137.716 126.8 138.716 126.8C139.683 126.8 140.408 126.141 140.408 125.229C140.408 124.306 139.683 123.647 138.716 123.658ZM140.88 128.338C142.902 128.338 144.154 129.019 144.154 130.195C144.154 131.381 142.902 132.062 140.88 132.062C138.848 132.062 137.606 131.381 137.606 130.195C137.606 129.019 138.848 128.338 140.88 128.338ZM140.88 129.008C139.386 129.008 138.452 129.459 138.452 130.195C138.452 130.931 139.386 131.37 140.88 131.37C142.385 131.37 143.308 130.931 143.308 130.195C143.308 129.459 142.385 129.008 140.88 129.008ZM141.111 124.438C141.193 124.68 141.243 124.943 141.243 125.229C141.243 125.504 141.193 125.762 141.111 125.998H143.253V124.438H141.111Z" fill="white"/>
<rect x="73.0002" y="143.85" width="40" height="40" rx="2.5" fill="#1A1A1A"/>
<path d="M109.163 155.262V156.067H99.3123V155.262H103.756V150.733H104.696V155.262H109.163Z" fill="white"/>
<path d="M78.314 178.35V169.512H79.4126V173.443H84.0879V169.512H85.1987V178.35H84.0879V174.407H79.4126V178.35H78.314Z" fill="white"/>
<rect x="118" y="143.85" width="40" height="40" rx="2.5" fill="#1A1A1A"/>
<path d="M151.563 151.82V152.613H149.073V154.774H151.563V155.579H149.073V159.302H148.109V148.67H149.073V151.82H151.563Z" fill="white"/>
<path d="M127.3 169.512V178.35H126.201V169.512H127.3Z" fill="white"/>
<rect x="163" y="143.85" width="40" height="40" rx="2.5" fill="#1A1A1A"/>
<path d="M194.83 153.089C194.83 154.725 196.124 155.921 197.967 156.36L197.503 157.093C196.008 156.702 194.787 155.829 194.268 154.529C193.756 155.829 192.553 156.702 191.058 157.093L190.594 156.36C192.425 155.921 193.707 154.725 193.707 153.089V152.759H190.899V151.954H193.804V150.391H194.769V151.954H197.674V152.759H194.83V153.089Z" fill="white"/>
<path d="M174.423 172.296C174.167 171.075 173.117 170.416 171.958 170.416C170.358 170.416 169.113 171.649 169.113 173.931C169.113 176.214 170.358 177.447 171.958 177.447C173.117 177.447 174.155 176.788 174.423 175.579H175.522C175.205 177.386 173.752 178.472 171.958 178.472C169.687 178.472 168.051 176.727 168.051 173.931C168.051 171.136 169.687 169.39 171.958 169.39C173.74 169.39 175.192 170.464 175.522 172.296H174.423Z" fill="white"/>
<rect x="208" y="143.85" width="40" height="40" rx="2.5" fill="#1A1A1A"/>
<path d="M239.83 153.089C239.83 154.725 241.124 155.921 242.968 156.36L242.504 157.093C241.008 156.702 239.788 155.829 239.269 154.529C238.756 155.829 237.554 156.702 236.058 157.093L235.594 156.36C237.426 155.921 238.707 154.725 238.707 153.089V152.759H235.9V151.954H238.805V150.391H239.769V151.954H242.675V152.759H239.83V153.089Z" fill="white"/>
<path d="M219.424 172.296C219.167 171.075 218.118 170.416 216.958 170.416C215.359 170.416 214.114 171.649 214.114 173.931C214.114 176.214 215.359 177.447 216.958 177.447C218.118 177.447 219.155 176.788 219.424 175.579H220.522C220.205 177.386 218.752 178.472 216.958 178.472C214.687 178.472 213.052 176.727 213.052 173.931C213.052 171.136 214.687 169.39 216.958 169.39C218.74 169.39 220.193 170.464 220.522 172.296H219.424Z" fill="white"/>
<rect x="28" y="188.756" width="40" height="40" rx="2.5" fill="#1A1A1A"/>
<path d="M60.8552 193.576V204.22H59.8909V200.204H57.2908V199.386H59.8909V197.372H57.2908V196.567H59.8909V193.576H60.8552Z" fill="white"/>
<path d="M39.0937 214.418H40.1924V220.265C40.1924 222.084 38.8374 223.415 36.75 223.415C34.6626 223.415 33.3076 222.084 33.3076 220.265V214.418H34.4062V220.18C34.4062 221.461 35.2974 222.389 36.75 222.389C38.2148 222.389 39.0937 221.461 39.0937 220.18V214.418Z" fill="white"/>
<rect x="73.0002" y="188.756" width="40" height="40" rx="2.5" fill="#1A1A1A"/>
<path d="M84.0876 193.6V204.257H83.1599V193.6H84.0876ZM81.9392 193.759V203.854H81.0237V200.143H78.9485V199.35H81.0237V197.299H78.9729V196.505H81.0237V193.759H81.9392Z" fill="white"/>
<path d="M106.612 193.576V204.245H105.672V193.576H106.612ZM104.439 193.747V203.854H103.524V198.642H101.51V197.848H103.524V193.747H104.439Z" fill="white"/>
<path d="M78.9487 223.256V214.418H81.9517C84.0269 214.418 84.9668 215.651 84.9668 217.226C84.9668 218.788 84.0269 220.045 81.9639 220.045H80.0474V223.256H78.9487ZM80.0474 219.069H81.915C83.3188 219.069 83.8804 218.275 83.8804 217.226C83.8804 216.164 83.3188 215.395 81.9028 215.395H80.0474V219.069Z" fill="white"/>
<rect x="118" y="188.756" width="40" height="40" rx="2.5" fill="#1A1A1A"/>
<path d="M135.217 200.168V199.435L140.796 196.603V197.738L136.572 199.765V199.838L140.796 201.852V202.987L135.217 200.168Z" fill="white"/>
<path d="M138.611 219.938L137.658 223.258H136.755L137.427 219.938H138.611Z" fill="white"/>
<rect x="163" y="188.756" width="40" height="40" rx="2.5" fill="#1A1A1A"/>
<path d="M173.673 193.576V204.245H172.757V200.29H170.877V203.83H169.974V193.747H170.877V196.579H172.757V193.576H173.673ZM170.877 199.496H172.757V197.384H170.877V199.496Z" fill="white"/>
<path d="M196.209 193.564V204.208H195.306V198.642H193.377V203.817H192.474V193.747H193.377V197.848H195.306V193.564H196.209Z" fill="white"/>
<path d="M175.656 218.837C175.656 221.632 174.008 223.378 171.75 223.378C169.479 223.378 167.844 221.632 167.844 218.837C167.844 216.042 169.479 214.296 171.75 214.296C174.008 214.296 175.656 216.042 175.656 218.837ZM174.594 218.837C174.594 216.554 173.349 215.321 171.75 215.321C170.151 215.321 168.906 216.554 168.906 218.837C168.906 221.12 170.151 222.353 171.75 222.353C173.349 222.353 174.594 221.12 174.594 218.837Z" fill="white"/>
<rect x="208" y="188.756" width="40" height="40" rx="2.5" fill="#1A1A1A"/>
<path d="M242.674 195.846V199.166H236.754V200.961H242.857V201.754H235.85V198.397H241.746V196.627H235.814V195.846H242.674Z" fill="white"/>
<path d="M214.248 223.256V214.418H219.57V215.395H215.346V218.349H219.167V219.313H215.346V223.256H214.248Z" fill="white"/>
<rect x="253" y="188.756" width="40" height="40" rx="2.5" fill="#1A1A1A"/>
<path d="M275.796 200.168L270.217 202.987V201.852L274.441 199.838V199.765L270.217 197.738V196.603L275.796 199.435V200.168Z" fill="white"/>
<path d="M273 220.829C272.573 220.829 272.207 220.475 272.219 220.036C272.207 219.608 272.573 219.254 273 219.254C273.427 219.254 273.781 219.608 273.781 220.036C273.781 220.475 273.427 220.829 273 220.829Z" fill="white"/>
<rect x="28" y="233.662" width="40" height="40" rx="2.5" fill="#1A1A1A"/>
<path d="M59.7932 238.481V249.138H58.8289V238.481H59.7932Z" fill="white"/>
<path d="M34.394 268.162V259.324H35.4927V267.185H39.5942V268.162H34.394Z" fill="white"/>
<rect x="73.0002" y="233.662" width="40" height="40" rx="2.5" fill="#1A1A1A"/>
<path d="M81.5486 240.874V241.667H79.0461V245.684C79.8579 245.671 80.6636 245.623 81.5608 245.403L81.6707 246.196C80.572 246.465 79.6443 246.501 78.6677 246.501H78.1062V240.874H81.5486ZM85.467 240.874V241.667H82.989V245.732H85.5159V246.514H82.0369V240.874H85.467Z" fill="white"/>
<path d="M107.613 240.874V241.667H101.9V245.793H107.735V246.562H100.948V240.874H107.613Z" fill="white"/>
<path d="M79.1807 268.162V259.324H84.5395V260.3H80.2793V263.254H84.2588V264.219H80.2793V267.185H84.6006V268.162H79.1807Z" fill="white"/>
<rect x="118" y="233.662" width="40" height="40" rx="2.5" fill="#1A1A1A"/>
<path d="M125.34 242.449C125.328 243.419 125.798 244.738 126.854 245.537C127.892 244.762 128.355 243.474 128.355 242.449V240.959H129.332V242.4C129.32 243.633 129.881 245.049 131.297 245.671L130.748 246.392C129.759 245.916 129.143 245.061 128.832 244.084C128.508 245.104 127.873 246.062 126.842 246.563C125.816 246.044 125.182 245.073 124.864 244.06C124.547 245.024 123.93 245.916 122.96 246.404L122.411 245.696C123.802 245.024 124.376 243.511 124.376 242.4V240.959H125.34V242.449Z" fill="white"/>
<path d="M149.793 242.424C149.793 244.255 151.258 245.5 153.175 245.94L152.711 246.709C151.191 246.318 149.909 245.458 149.317 244.133C148.725 245.458 147.444 246.318 145.924 246.709L145.448 245.94C147.364 245.5 148.841 244.255 148.841 242.424V240.679H149.793V242.424Z" fill="white"/>
<path d="M123.418 260.3V259.324H130.083V260.3H127.312V268.162H126.201V260.3H123.418Z" fill="white"/>
<rect x="163" y="233.662" width="40" height="40" rx="2.5" fill="#1A1A1A"/>
<path d="M170.34 242.449C170.328 243.419 170.798 244.738 171.854 245.537C172.891 244.762 173.355 243.474 173.355 242.449V240.959H174.332V242.4C174.32 243.633 174.881 245.049 176.297 245.671L175.748 246.392C174.759 245.916 174.143 245.061 173.831 244.084C173.508 245.104 172.873 246.062 171.842 246.563C170.816 246.044 170.181 245.073 169.864 244.06C169.547 245.024 168.93 245.916 167.96 246.404L167.41 245.696C168.802 245.024 169.376 243.511 169.376 242.4V240.959H170.34V242.449Z" fill="white"/>
<path d="M194.793 242.424C194.793 244.255 196.258 245.5 198.175 245.94L197.711 246.709C196.191 246.318 194.909 245.458 194.317 244.133C193.725 245.458 192.443 246.318 190.924 246.709L190.448 245.94C192.364 245.5 193.841 244.255 193.841 242.424V240.679H194.793V242.424Z" fill="white"/>
<path d="M168.417 260.3V259.324H175.083V260.3H172.312V268.162H171.201V260.3H168.417Z" fill="white"/>
<rect x="208" y="233.662" width="40" height="40" rx="2.5" fill="#1A1A1A"/>
<path d="M216.549 240.874V241.667H214.046V245.684C214.858 245.671 215.664 245.623 216.561 245.403L216.671 246.196C215.572 246.465 214.644 246.501 213.668 246.501H213.106V240.874H216.549ZM220.467 240.874V241.667H217.989V245.732H220.516V246.514H217.037V240.874H220.467Z" fill="white"/>
<path d="M242.613 240.874V241.667H236.9V245.793H242.735V246.562H235.948V240.874H242.613Z" fill="white"/>
<path d="M214.18 268.162V259.324H219.539V260.3H215.279V263.254H219.259V264.219H215.279V267.185H219.6V268.162H214.18Z" fill="white"/>
<rect x="253" y="233.662" width="40" height="40" rx="2.5" fill="#1A1A1A"/>
<path d="M261.646 240.935V246.587H260.719V241.728H257.887V240.935H261.646ZM266.004 240.911V246.575H265.064V241.704H262.293V240.911H266.004Z" fill="white"/>
<path d="M287.65 240.935V246.587H286.698V241.728H280.851V240.935H287.65Z" fill="white"/>
<path d="M258.924 268.162V259.324H261.927C264.002 259.324 264.942 260.471 264.942 262.046C264.942 263.212 264.417 264.133 263.294 264.524L265.284 268.162H264.002L262.159 264.719L261.939 264.731H260.023V268.162H258.924ZM260.023 263.73H261.89C263.294 263.73 263.856 263.096 263.856 262.046C263.856 260.984 263.294 260.3 261.878 260.3H260.023V263.73Z" fill="white"/>
<rect x="60.5" y="278.567" width="40" height="40" rx="2.5" fill="#1A1A1A"/>
<path d="M79.6763 290.516C79.6885 288.88 80.189 288.38 81.0312 287.867C81.5317 287.562 81.9224 287.074 81.9224 286.39C81.9224 285.56 81.2754 285.035 80.4697 285.035C79.7739 285.035 79.0781 285.45 79.0049 286.451H77.894C77.9551 284.974 79.0781 284.107 80.4697 284.107C81.9956 284.107 82.9966 285.096 82.9966 286.439C82.9966 287.391 82.5449 288.062 81.7881 288.526C81.0312 288.99 80.7505 289.454 80.7261 290.516V290.577H79.6763V290.516ZM80.2378 293.14C79.8105 293.14 79.4443 292.786 79.4565 292.347C79.4443 291.92 79.8105 291.566 80.2378 291.566C80.665 291.566 81.019 291.92 81.019 292.347C81.019 292.786 80.665 293.14 80.2378 293.14Z" fill="white"/>
<path d="M82.4043 303.814L79.5479 314.398H78.5957L81.4399 303.814H82.4043Z" fill="white"/>
<rect x="105.5" y="278.567" width="75" height="40" rx="2.5" fill="#1A1A1A"/>
<path d="M110.92 306.457L116.75 300.627L122.58 306.457H119.504V312.067H113.981V306.457H110.92ZM112.854 305.695H114.846V311.291H118.654V305.695H120.646L116.75 301.784L112.854 305.695Z" fill="white"/>
<rect x="185.5" y="278.567" width="75" height="40" rx="2.5" fill="#1A1A1A"/>
<path d="M246.621 310.368L243.618 307.424L246.621 304.479V306.97H253.959V301.462H254.882V307.878H246.621V310.368Z" fill="white"/>
<rect x="105.5" y="323.473" width="65" height="40" rx="2.5" fill="#1A1A1A"/>
<path d="M157.766 339.418C156.728 339.418 155.874 338.576 155.874 337.538C155.874 336.501 156.728 335.658 157.766 335.658H158.754V333.937H157.766C156.728 333.949 155.874 333.107 155.874 332.07C155.874 331.032 156.728 330.19 157.766 330.19C158.791 330.19 159.646 331.032 159.646 332.07V333.046H161.367V332.07C161.354 331.032 162.197 330.19 163.234 330.19C164.272 330.19 165.114 331.032 165.114 332.07C165.114 333.107 164.272 333.949 163.234 333.937H162.246V335.658H163.234C164.272 335.658 165.114 336.501 165.114 337.538C165.114 338.576 164.272 339.418 163.234 339.418C162.197 339.418 161.354 338.576 161.367 337.538V336.55H159.646V337.538C159.646 338.576 158.791 339.418 157.766 339.418ZM157.766 338.527C158.303 338.527 158.754 338.088 158.754 337.538V336.55H157.766C157.216 336.55 156.765 337.001 156.765 337.538C156.765 338.088 157.216 338.527 157.766 338.527ZM157.766 333.046H158.754V332.07C158.754 331.52 158.303 331.069 157.766 331.069C157.216 331.069 156.765 331.52 156.765 332.07C156.765 332.607 157.216 333.058 157.766 333.046ZM163.234 333.046C163.784 333.058 164.223 332.607 164.223 332.07C164.223 331.52 163.784 331.069 163.234 331.069C162.685 331.069 162.246 331.52 162.246 332.07V333.046H163.234ZM163.234 338.527C163.784 338.527 164.223 338.088 164.223 337.538C164.223 337.001 163.784 336.55 163.234 336.55H162.246V337.538C162.246 338.088 162.685 338.527 163.234 338.527ZM159.646 335.658H161.367V333.937H159.646V335.658Z" fill="white"/>
<path d="M112.355 357.83C110.852 357.83 109.934 356.688 109.934 355.096C109.934 353.485 110.891 352.352 112.336 352.352C113.469 352.352 114.309 353.016 114.445 354.022H113.605C113.488 353.533 113.059 353.094 112.355 353.094C111.408 353.094 110.773 353.875 110.773 355.067C110.773 356.297 111.389 357.078 112.355 357.078C112.98 357.078 113.459 356.746 113.605 356.16H114.445C114.309 357.108 113.537 357.83 112.355 357.83ZM117.648 357.83C116.203 357.83 115.227 356.746 115.227 355.096C115.227 353.446 116.203 352.352 117.648 352.352C119.084 352.352 120.051 353.446 120.051 355.096C120.051 356.746 119.084 357.83 117.648 357.83ZM117.648 357.088C118.713 357.088 119.211 356.151 119.211 355.096C119.211 354.041 118.713 353.094 117.648 353.094C116.564 353.094 116.066 354.041 116.066 355.096C116.066 356.151 116.564 357.088 117.648 357.088ZM121.154 357.723V352.42H121.965V353.25H122.033C122.258 352.684 122.766 352.352 123.459 352.352C124.152 352.352 124.621 352.684 124.875 353.25H124.934C125.207 352.703 125.764 352.352 126.525 352.352C127.473 352.352 128.146 352.928 128.146 354.178V357.723H127.307V354.188C127.307 353.407 126.809 353.104 126.232 353.104C125.49 353.104 125.07 353.602 125.07 354.276V357.723H124.221V354.1C124.221 353.504 123.791 353.104 123.186 353.104C122.551 353.104 121.994 353.641 121.994 354.412V357.723H121.154ZM129.494 357.723V352.42H130.305V353.25H130.373C130.598 352.684 131.105 352.352 131.799 352.352C132.492 352.352 132.961 352.684 133.215 353.25H133.273C133.547 352.703 134.104 352.352 134.865 352.352C135.812 352.352 136.486 352.928 136.486 354.178V357.723H135.646V354.188C135.646 353.407 135.148 353.104 134.572 353.104C133.83 353.104 133.41 353.602 133.41 354.276V357.723H132.561V354.1C132.561 353.504 132.131 353.104 131.525 353.104C130.891 353.104 130.334 353.641 130.334 354.412V357.723H129.494ZM137.58 356.219C137.58 354.998 138.654 354.725 139.572 354.657C139.909 354.632 140.769 354.588 141.008 354.578V354.149C141.008 353.475 140.607 353.084 139.807 353.084C139.133 353.084 138.732 353.397 138.615 353.797H137.736C137.844 352.948 138.674 352.352 139.846 352.352C140.539 352.352 141.838 352.557 141.838 354.227V357.723H141.008V357H140.969C140.793 357.362 140.305 357.85 139.387 357.85C138.381 357.85 137.58 357.254 137.58 356.219ZM138.42 356.258C138.42 356.815 138.889 357.098 139.533 357.098C140.48 357.098 141.008 356.463 141.008 355.799V355.262L139.67 355.36C138.908 355.408 138.42 355.682 138.42 356.258ZM144.025 354.539V357.723H143.186V352.42H143.996V353.25H144.064C144.318 352.713 144.807 352.352 145.617 352.352C146.691 352.352 147.404 353.006 147.404 354.354V357.723H146.564V354.412C146.564 353.592 146.115 353.104 145.363 353.104C144.592 353.104 144.025 353.621 144.025 354.539ZM150.754 357.83C149.436 357.83 148.498 356.766 148.498 355.086C148.498 353.407 149.436 352.352 150.764 352.352C151.789 352.352 152.121 352.977 152.297 353.26H152.355V350.653H153.205V357.723H152.385V356.912H152.297C152.111 357.205 151.77 357.83 150.754 357.83ZM150.871 357.078C151.838 357.078 152.385 356.258 152.385 355.067C152.385 353.895 151.857 353.104 150.871 353.104C149.855 353.104 149.348 353.963 149.348 355.067C149.348 356.199 149.865 357.078 150.871 357.078Z" fill="white"/>
<rect x="175.5" y="323.473" width="40" height="40" rx="2.5" fill="#1A1A1A"/>
<path d="M210.357 335.531V336.313H203.424V330.746H204.376V335.531H210.357Z" fill="white"/>
<path d="M186.252 351.357C186.154 350.49 185.361 349.99 184.299 349.99C183.127 349.99 182.358 350.6 182.358 351.442C182.358 352.37 183.396 352.712 184.067 352.883L184.946 353.127C185.898 353.371 187.448 353.92 187.448 355.568C187.448 357.009 186.289 358.132 184.238 358.132C182.333 358.132 181.149 357.143 181.052 355.678H182.175C182.272 356.667 183.188 357.131 184.238 357.131C185.458 357.131 186.374 356.508 186.374 355.544C186.374 354.689 185.556 354.36 184.628 354.091L183.542 353.798C182.15 353.395 181.296 352.687 181.296 351.491C181.296 350.002 182.626 349.013 184.335 349.013C186.044 349.013 187.277 350.014 187.326 351.357H186.252Z" fill="white"/>
<path d="M185.337 4.33342H136.442C135.185 4.33342 134.167 5.53235 134.167 7.0113V91.2111C134.167 92.69 135.185 93.889 136.442 93.889H185.337C186.593 93.889 187.611 92.69 187.611 91.2111V7.0113C187.611 5.53235 186.593 4.33342 185.337 4.33342Z" fill="#444444"/>
<path d="M189.297 70.7778H132.481C131.417 70.7778 130.556 71.9545 130.556 73.406V79.7052C130.556 81.1567 131.417 82.3334 132.481 82.3334H189.297C190.361 82.3334 191.222 81.1567 191.222 79.7052V73.406C191.222 71.9545 190.361 70.7778 189.297 70.7778Z" fill="#555555"/>
<path d="M130.556 31.7779H191.222V41.0005C191.222 42.0372 190.941 43.0431 190.434 43.8341L189.872 44.7018C189.249 45.6694 188.338 46.2223 187.379 46.2223H134.399C133.44 46.2223 132.529 45.6694 131.906 44.7018L131.344 43.8341C130.837 43.0431 130.556 42.0449 130.556 41.0005V31.7779Z" fill="#555555"/>
<path d="M158 7.62939e-05H195.559C196.933 7.62939e-05 198.182 0.792505 198.761 2.03676L228.055 65.0001H160.231C158.997 65.0001 158 64.0061 158 62.7757V7.62939e-05Z" fill="#1A1A1A"/>
<path d="M112.409 27.4445L99.9063 4.33338H194.111V27.4445H112.409ZM112.893 28.3395C112.894 28.3415 112.895 28.3434 112.896 28.3453L112.893 28.3395Z" fill="#1A1A1A" stroke="#1A1A1A" stroke-width="8.66667"/>
<path d="M315.994 237.775C315.994 175.722 297.078 147.722 263.995 117.566C219.658 77.1617 195.881 57.4766 172 5H191.332C191.406 5 191.467 5.0387 191.503 5.10319C265.952 140.845 316 120.498 316 237.775V274V252.189" fill="#1A1A1A"/>
<path d="M315.994 237.775C315.994 175.722 297.078 147.722 263.995 117.566C219.658 77.1617 195.881 57.4766 172 5H191.332C191.406 5 191.467 5.0387 191.503 5.10319C265.952 140.845 316 120.498 316 237.775V274V252.189" stroke="#1A1A1A" stroke-width="7.22222" stroke-linecap="round"/>
<path d="M203.457 126.144C230.955 126.144 253.246 103.852 253.246 76.3538C253.246 48.8555 230.955 26.5638 203.457 26.5638C175.958 26.5638 153.667 48.8555 153.667 76.3538C153.667 103.852 175.958 126.144 203.457 126.144Z" stroke="#FF6A00" stroke-width="6"/>
<rect x="182.103" y="22.5494" width="9.38889" height="15.8889" rx="4.69444" transform="rotate(-15 182.103 22.5494)" fill="#555555"/>
</svg>
