<svg width="89" height="192" viewBox="0 0 89 192" fill="none" xmlns="http://www.w3.org/2000/svg">
<circle cx="40" cy="40" r="39" transform="matrix(1 -8.74228e-08 -8.74228e-08 -1 0 192)" fill="#1A1A1A" stroke="#1A1A1A" stroke-width="2"/>
<circle cx="10" cy="10" r="9" transform="matrix(1 -8.74228e-08 -8.74228e-08 -1 30 162)" fill="white" stroke="#1A1A1A" stroke-width="2"/>
<path d="M58.382 135L21 60.2361L21 135L58.382 135Z" stroke="#1A1A1A" stroke-width="2"/>
<path d="M21.618 135L59 60.2361L59 135L21.618 135Z" stroke="#1A1A1A" stroke-width="2"/>
<circle cx="40" cy="40" r="39" transform="matrix(1 -8.74228e-08 -8.74228e-08 -1 0 80)" fill="#1A1A1A" stroke="#1A1A1A" stroke-width="2"/>
<circle cx="10" cy="10" r="9" transform="matrix(1 -8.74228e-08 -8.74228e-08 -1 30 50)" fill="white" stroke="#1A1A1A" stroke-width="2"/>
<path d="M48 49.5001C61.3333 61.8759 84.5 88.0966 88 129.5" stroke="#1A1A1A" stroke-width="2"/>
</svg>
