<svg width="121" height="20" viewBox="0 0 121 20" fill="none" xmlns="http://www.w3.org/2000/svg">
<path d="M21.0852 0.697662H17.3643V19.3023H21.0852V0.697662Z" fill="#1A1A1A"/>
<path fill-rule="evenodd" clip-rule="evenodd" d="M11.1628 0.697662V8.13952H3.72093V0.697662H0V19.3023H3.72093V11.8605H11.1628V19.3023H14.8837V0.697662H11.1628Z" fill="#1A1A1A"/>
<path fill-rule="evenodd" clip-rule="evenodd" d="M72.558 0.697662H57.6743V4.41859H63.2557V19.3023H66.9766V4.41859H72.558V0.697662Z" fill="#1A1A1A"/>
<path d="M104.186 19.3023V14.9651C104.186 13.193 103.511 11.5791 102.404 10.3659C103.5 9.3465 104.186 7.89301 104.186 6.27906C104.186 3.19689 101.687 0.697662 98.6046 0.697662H89.3022V19.3023H93.0232M93.0232 4.41859H98.6046C99.6302 4.41859 100.465 5.25348 100.465 6.27906C100.465 7.30464 99.6302 8.13952 98.6046 8.13952H93.0232V4.41859ZM93.0232 19.3023V11.8605H97.3604C99.072 11.8605 100.465 13.2535 100.465 14.9651V19.3023" fill="#1A1A1A"/>
<path d="M113.484 19.9225C108.894 19.9225 106.042 17.5465 106.042 13.7209H109.763C109.763 14.8093 110.207 15.2558 110.595 15.5233C111.228 15.9605 112.253 16.2016 113.484 16.2016C114.714 16.2016 115.755 15.9651 116.414 15.5349C116.96 15.1783 117.205 14.714 117.205 14.031C117.205 13.0434 116.835 12.5674 113.119 11.824C111.388 11.4775 109.853 11.1326 108.6 10.4093C106.926 9.44342 106.041 7.90776 106.041 5.96823C106.041 2.38916 108.962 0.0767517 113.483 0.0767517C118.004 0.0767517 120.925 2.45272 120.925 6.2783H117.204C117.204 5.18993 116.76 4.74342 116.372 4.47598C115.739 4.03877 114.713 3.79768 113.483 3.79768C112.253 3.79768 111.212 4.03412 110.553 4.46435C110.006 4.82094 109.762 5.28528 109.762 5.96823C109.762 6.95582 110.132 7.43179 113.848 8.1752C115.579 8.52171 117.113 8.86668 118.367 9.58993C120.04 10.5558 120.925 12.0915 120.925 14.031C120.925 17.6101 118.005 19.9225 113.484 19.9225Z" fill="#1A1A1A"/>
<path d="M48.9924 19.9225C44.4025 19.9225 41.5506 17.5465 41.5506 13.7209H45.2715C45.2715 14.8093 45.7157 15.2558 46.1033 15.5233C46.7366 15.9605 47.7622 16.2016 48.9924 16.2016C50.2227 16.2016 51.2638 15.9651 51.9227 15.5349C52.4692 15.1783 52.7134 14.714 52.7134 14.031C52.7134 13.0434 52.3436 12.5674 48.6273 11.824C46.8963 11.4775 45.3622 11.1326 44.1087 10.4093C42.4351 9.44342 41.5498 7.90776 41.5498 5.96823C41.5498 2.38916 44.4707 0.0767517 48.9917 0.0767517C53.5126 0.0767517 56.4335 2.45272 56.4335 6.2783H52.7126C52.7126 5.18993 52.2684 4.74342 51.8808 4.47598C51.2475 4.03877 50.2219 3.79768 48.9917 3.79768C47.7614 3.79768 46.7203 4.03412 46.0614 4.46435C45.5149 4.82094 45.2707 5.28528 45.2707 5.96823C45.2707 6.95582 45.6405 7.43179 49.3568 8.1752C51.0878 8.52171 52.6219 8.86668 53.8754 9.58993C55.549 10.5558 56.4343 12.0915 56.4343 14.031C56.4343 17.6101 53.5134 19.9225 48.9924 19.9225Z" fill="#1A1A1A"/>
<path d="M31.545 19.9225C29.8365 19.9225 28.2218 19.4302 26.8295 18.4612C24.4233 16.7876 23.0016 13.9287 22.9295 10.6178C22.8311 6.09768 25.9032 1.84574 30.2334 0.506985C32.9823 -0.342627 35.604 0.0341171 37.2466 1.51474C38.9954 3.09148 39.304 5.72171 37.9481 7.50311C36.6559 9.20156 34.6706 9.82481 32.9195 10.3752C32.7745 10.4209 32.6303 10.4659 32.4885 10.5116L31.7009 8.12791C31.8474 8.0814 31.9954 8.03489 32.1443 7.9876C33.5993 7.53024 35.1047 7.05737 35.9086 6.00156C36.528 5.18838 36.2102 3.98063 35.5249 3.3628C34.39 2.33954 32.4419 2.45195 30.9978 2.89846C29.4241 3.3845 27.9993 4.43024 26.9869 5.84264C25.9776 7.24962 25.4419 8.92714 25.4776 10.5643C25.5319 13.0721 26.5613 15.2047 28.3016 16.4147C29.8226 17.4729 31.7675 17.6969 33.7784 17.045C35.6032 16.4535 37.1807 14.7814 37.8939 12.6814L40.3109 13.476C39.3326 16.3543 37.1885 18.5783 34.5761 19.4256C33.5512 19.7574 32.5326 19.9217 31.5458 19.9217L31.545 19.9225Z" fill="#1A1A1A"/>
<path d="M80.3293 19.9225C79.3704 19.9225 78.4231 19.7589 77.5448 19.4217C74.7053 18.331 72.8844 15.4535 73.2161 12.5799C73.3719 11.2287 73.9564 9.90853 74.8247 8.80466C74.1906 7.05815 74.2107 5.12559 74.8859 3.59691C75.7502 1.64032 77.5309 0.372874 79.7696 0.120936C82.1929 -0.151932 84.6394 0.870548 86.0022 2.72636L84.0278 4.23877C83.1781 3.08218 81.6138 2.44962 80.0402 2.62636C78.6906 2.7783 77.6324 3.51008 77.1355 4.63334C76.8394 5.30233 76.7572 6.11861 76.8851 6.94497C77.2727 6.70311 77.6805 6.49768 78.1037 6.33567C79.2417 5.89846 80.4657 5.91396 81.4619 6.37598C82.6898 6.94652 83.513 8.20078 83.5107 9.49846C83.5084 10.7589 82.7169 11.9868 81.5417 12.5535C80.5464 13.0333 79.3394 13.0465 78.2316 12.5892C77.4774 12.2775 76.7999 11.793 76.2278 11.1659C75.9324 11.7085 75.7355 12.2915 75.6681 12.8744C75.4704 14.5845 76.651 16.3845 78.4138 17.062C80.3161 17.7923 82.7983 17.3116 84.451 15.8915C85.0557 15.3721 85.4929 14.7535 85.7502 14.0527L88.0619 14.938C87.6541 16.0488 86.9735 17.0194 86.0409 17.8209C84.451 19.1868 82.3642 19.9217 80.3301 19.9217L80.3293 19.9225ZM77.896 9.27985C78.2572 9.72249 78.689 10.0581 79.158 10.2519C79.6223 10.4434 80.1192 10.4519 80.4882 10.2737C80.8037 10.1217 81.0425 9.78528 81.0433 9.49225C81.0433 9.18295 80.7851 8.82946 80.4409 8.66977C80.0433 8.48528 79.4944 8.4938 78.9743 8.6938C78.596 8.83877 78.2332 9.03799 77.896 9.27908V9.27985Z" fill="#1A1A1A"/>
</svg>
